<?xml version="1.0" encoding="UTF-8"?>
<!DOCTYPE svg PUBLIC "-//W3C//DTD SVG 1.1//EN" "http://www.w3.org/Graphics/SVG/1.1/DTD/svg11.dtd">
<svg xmlns="http://www.w3.org/2000/svg" version="1.1" width="500px" height="500px" style="shape-rendering:geometricPrecision; text-rendering:geometricPrecision; image-rendering:optimizeQuality; fill-rule:evenodd; clip-rule:evenodd" xmlns:xlink="http://www.w3.org/1999/xlink">
<g><path style="opacity:1" fill="#000000" d="M -0.5,-0.5 C 166.167,-0.5 332.833,-0.5 499.5,-0.5C 499.5,166.167 499.5,332.833 499.5,499.5C 332.833,499.5 166.167,499.5 -0.5,499.5C -0.5,332.833 -0.5,166.167 -0.5,-0.5 Z"/></g>
<g><path style="opacity:1" fill="#597bfc" d="M 238.5,185.5 C 272.404,184.697 295.571,200.03 308,231.5C 316.358,258.499 312.024,283.166 295,305.5C 268.137,332.792 238.97,335.625 207.5,314C 182.697,289.949 175.863,261.449 187,228.5C 196.82,205.166 213.986,190.832 238.5,185.5 Z"/></g>
<g><path style="opacity:1" fill="#587afc" d="M 10.5,227.5 C 15.8437,227.334 21.1771,227.501 26.5,228C 26,228.5 25.5,229 25,229.5C 24.3333,246.167 24.3333,262.833 25,279.5C 25.3742,280.416 25.8742,281.25 26.5,282C 20.8333,282.667 15.1667,282.667 9.5,282C 10,281.5 10.5,281 11,280.5C 11.806,262.79 11.6393,245.123 10.5,227.5 Z"/></g>
<g><path style="opacity:1" fill="#fcfcfe" d="M 204.5,256.5 C 204.5,255.833 204.833,255.5 205.5,255.5C 213.553,259.297 217.886,256.631 218.5,247.5C 218.742,244.486 217.742,241.986 215.5,240C 211.605,238.734 207.605,238.234 203.5,238.5C 203.5,243.5 203.5,248.5 203.5,253.5C 202.187,261.599 202.187,269.599 203.5,277.5C 203.421,278.93 203.754,280.264 204.5,281.5C 199.167,282.833 193.833,282.833 188.5,281.5C 189.098,280.205 189.598,278.872 190,277.5C 190.667,261.833 190.667,246.167 190,230.5C 189.626,229.584 189.126,228.75 188.5,228C 198.561,227.105 208.561,227.438 218.5,229C 231.41,235.344 234.91,245.178 229,258.5C 224.504,265.832 218.004,268.998 209.5,268C 207.345,264.366 205.679,260.533 204.5,256.5 Z"/></g>
<g><path style="opacity:1" fill="#5678f7" d="M 349.5,226.5 C 357.14,225.817 364.473,226.984 371.5,230C 372.868,231.34 374.201,232.674 375.5,234C 374.187,237.458 373.02,240.958 372,244.5C 364.78,236.698 356.614,235.531 347.5,241C 339.561,250.303 339.561,259.637 347.5,269C 356.653,274.465 364.82,273.299 372,265.5C 373.363,268.59 374.53,271.756 375.5,275C 373.502,278.513 370.502,280.846 366.5,282C 349.332,286.499 337.166,280.666 330,264.5C 325.695,246.106 332.195,233.439 349.5,226.5 Z"/></g>
<g><path style="opacity:1" fill="#5678f7" d="M 117.5,230.5 C 118.483,234.298 118.817,238.298 118.5,242.5C 121.167,242.5 123.833,242.5 126.5,242.5C 126.5,246.167 126.5,249.833 126.5,253.5C 123.833,253.5 121.167,253.5 118.5,253.5C 118.334,259.176 118.501,264.843 119,270.5C 121.209,272.706 123.709,273.04 126.5,271.5C 130.809,279.698 128.309,283.698 119,283.5C 113.774,283.606 110.107,281.273 108,276.5C 106.644,268.905 106.144,261.238 106.5,253.5C 105.5,253.5 104.5,253.5 103.5,253.5C 103.335,249.818 103.501,246.152 104,242.5C 109.341,239.319 113.841,235.319 117.5,230.5 Z"/></g>
<g><path style="opacity:1" fill="#597bfb" d="M 205.5,255.5 C 205.167,254.5 204.5,253.833 203.5,253.5C 203.5,248.5 203.5,243.5 203.5,238.5C 207.605,238.234 211.605,238.734 215.5,240C 217.742,241.986 218.742,244.486 218.5,247.5C 217.886,256.631 213.553,259.297 205.5,255.5 Z"/></g>
<g><path style="opacity:1" fill="#5577f5" d="M 50.5,241.5 C 57.0344,240.502 61.8678,242.836 65,248.5C 65.3333,258.833 65.6667,269.167 66,279.5C 66.3742,280.416 66.8742,281.25 67.5,282C 62.467,282.829 57.467,282.662 52.5,281.5C 53.6386,272.548 53.8052,263.548 53,254.5C 48.7992,250.113 45.4658,250.78 43,256.5C 42.3333,264.167 42.3333,271.833 43,279.5C 43.3742,280.416 43.8742,281.25 44.5,282C 39.467,282.829 34.467,282.662 29.5,281.5C 30.6415,271.547 30.8082,261.547 30,251.5C 28.992,249.741 27.492,248.574 25.5,248C 31.1264,247.02 36.4598,245.187 41.5,242.5C 42.3253,246.122 42.8253,249.789 43,253.5C 45.2746,249.268 47.7746,245.268 50.5,241.5 Z"/></g>
<g><path style="opacity:1" fill="#5677f6" d="M 81.5,241.5 C 88.3734,241.22 95.0401,242.22 101.5,244.5C 101.161,248.85 99.8278,252.85 97.5,256.5C 92.6238,252.984 87.2904,251.984 81.5,253.5C 86.5124,256.46 91.8457,258.96 97.5,261C 101.749,265.546 102.582,270.713 100,276.5C 91.0912,284.491 81.4246,285.491 71,279.5C 70.4164,275.502 71.2497,271.835 73.5,268.5C 78.3775,271.85 83.7109,273.017 89.5,272C 89.9574,271.586 90.2907,271.086 90.5,270.5C 84.0128,268.17 77.8461,265.17 72,261.5C 67.8551,251.454 71.0217,244.787 81.5,241.5 Z"/></g>
<g><path style="opacity:1" fill="#5677f6" d="M 140.5,241.5 C 150.301,240.265 158.468,243.265 165,250.5C 165.862,252.087 166.529,253.754 167,255.5C 167.333,262.167 167.667,268.833 168,275.5C 168.925,276.047 169.758,276.713 170.5,277.5C 159.914,287.248 154.747,284.915 155,270.5C 152.752,273.328 150.752,276.328 149,279.5C 143.364,285.009 138.031,284.676 133,278.5C 130.846,268.976 134.346,262.476 143.5,259C 147.091,258.211 150.591,258.378 154,259.5C 154.203,256.339 152.703,254.172 149.5,253C 144.657,251.786 140.49,252.953 137,256.5C 134.92,254.007 133.086,251.341 131.5,248.5C 134.023,245.422 137.023,243.089 140.5,241.5 Z"/></g>
<g><path style="opacity:1" fill="#f9fafe" d="M 243.5,241.5 C 265.53,241.465 274.363,252.465 270,274.5C 270.645,275.646 271.478,276.646 272.5,277.5C 261.972,287.266 256.805,284.932 257,270.5C 254.429,275.154 251.262,279.321 247.5,283C 235.728,283.329 231.895,277.829 236,266.5C 241.554,259.465 248.388,256.631 256.5,258C 253.948,253.061 249.948,251.395 244.5,253C 242.695,253.972 241.028,255.139 239.5,256.5C 237.147,254.14 235.147,251.473 233.5,248.5C 236.244,245.144 239.577,242.811 243.5,241.5 Z"/></g>
<g><path style="opacity:1" fill="#5677f6" d="M 386.5,241.5 C 395.016,240.728 402.516,243.062 409,248.5C 410,250.5 411,252.5 412,254.5C 412.333,261.167 412.667,267.833 413,274.5C 413.645,275.646 414.478,276.646 415.5,277.5C 404.972,287.266 399.805,284.932 400,270.5C 397.539,275.621 394.039,279.787 389.5,283C 381.885,284.054 377.885,280.721 377.5,273C 378.071,267.079 381.071,262.746 386.5,260C 390.796,259.036 395.13,258.203 399.5,257.5C 394.254,251.231 388.587,250.897 382.5,256.5C 380.147,254.14 378.147,251.473 376.5,248.5C 379.198,245.16 382.531,242.827 386.5,241.5 Z"/></g>
<g><path style="opacity:1" fill="#5678f6" d="M 427.5,241.5 C 434.993,240.958 441.993,242.458 448.5,246C 447.105,249.465 445.772,252.965 444.5,256.5C 439.185,253.164 433.518,252.164 427.5,253.5C 432.512,256.46 437.846,258.96 443.5,261C 450.24,267.602 449.907,273.936 442.5,280C 434.182,284.603 425.849,284.603 417.5,280C 416.616,276.005 417.283,272.172 419.5,268.5C 424.378,271.85 429.711,273.017 435.5,272C 435.957,271.586 436.291,271.086 436.5,270.5C 431.659,268.264 426.659,266.098 421.5,264C 415.71,258.553 415.043,252.553 419.5,246C 422.099,244.205 424.766,242.705 427.5,241.5 Z"/></g>
<g><path style="opacity:1" fill="#5678f7" d="M 463.5,224.5 C 464.33,233.991 464.83,243.658 465,253.5C 466.656,248.995 469.156,245.161 472.5,242C 479.36,240.723 484.193,243.223 487,249.5C 487.333,259.167 487.667,268.833 488,278.5C 488.309,279.766 488.809,280.933 489.5,282C 484.167,282.667 478.833,282.667 473.5,282C 474,281.5 474.5,281 475,280.5C 475.667,271.833 475.667,263.167 475,254.5C 471.351,250.402 468.018,250.735 465,255.5C 464.333,263.5 464.333,271.5 465,279.5C 465.374,280.416 465.874,281.25 466.5,282C 461.511,282.499 456.511,282.666 451.5,282.5C 452.621,266.532 452.788,250.532 452,234.5C 450.786,232.951 449.286,231.785 447.5,231C 453.364,229.885 458.697,227.718 463.5,224.5 Z"/></g>
<g><path style="opacity:1" fill="#fafbfe" d="M 272.5,242.5 C 276.555,242.176 280.555,242.509 284.5,243.5C 286.181,249.713 288.348,255.713 291,261.5C 292.975,255.241 295.141,249.075 297.5,243C 301.541,242.173 305.541,242.34 309.5,243.5C 302.89,261.994 296.89,280.661 291.5,299.5C 287.5,299.5 283.5,299.5 279.5,299.5C 280.651,293.545 282.317,287.712 284.5,282C 280.19,268.905 276.19,255.738 272.5,242.5 Z"/></g>
<g><path style="opacity:1" fill="#090913" d="M 149.5,260.5 C 151.5,260.5 153.5,260.5 155.5,260.5C 157.216,266.979 154.883,270.979 148.5,272.5C 144.222,270.661 143.389,267.661 146,263.5C 147.145,262.364 148.312,261.364 149.5,260.5 Z"/></g>
<g><path style="opacity:1" fill="#07070f" d="M 394.5,260.5 C 396.5,260.5 398.5,260.5 400.5,260.5C 402.216,266.979 399.883,270.979 393.5,272.5C 390.935,272.101 389.601,270.601 389.5,268C 390.299,264.896 391.966,262.396 394.5,260.5 Z"/></g>
<g><path style="opacity:1" fill="#b7c5f9" d="M 203.5,253.5 C 204.5,253.833 205.167,254.5 205.5,255.5C 204.833,255.5 204.5,255.833 204.5,256.5C 203.509,263.313 203.175,270.313 203.5,277.5C 202.187,269.599 202.187,261.599 203.5,253.5 Z"/></g>
<g><path style="opacity:1" fill="#5b7cfa" d="M 251.5,260.5 C 253.5,260.5 255.5,260.5 257.5,260.5C 259.007,268.825 255.673,272.325 247.5,271C 246.919,270.107 246.585,269.107 246.5,268C 247.546,265.114 249.213,262.614 251.5,260.5 Z"/></g>
<g><path style="opacity:1" fill="#e2e2e2" d="M 185.5,342.5 C 186.5,342.5 187.5,342.5 188.5,342.5C 188.5,348.833 188.5,355.167 188.5,361.5C 187.167,361.5 185.833,361.5 184.5,361.5C 184.177,354.978 184.51,348.645 185.5,342.5 Z"/></g>
<g><path style="opacity:1" fill="#969696" d="M 185.5,342.5 C 186.568,341.566 187.901,341.232 189.5,341.5C 189.824,348.354 189.491,355.021 188.5,361.5C 188.5,355.167 188.5,348.833 188.5,342.5C 187.5,342.5 186.5,342.5 185.5,342.5 Z"/></g>
<g><path style="opacity:1" fill="#efefef" d="M 257.5,341.5 C 258.833,341.5 260.167,341.5 261.5,341.5C 261.5,348.167 261.5,354.833 261.5,361.5C 257.818,361.665 254.152,361.499 250.5,361C 247.561,356.982 247.895,353.315 251.5,350C 253.441,349.257 255.274,349.424 257,350.5C 257.498,347.518 257.665,344.518 257.5,341.5 Z"/></g>
<g><path style="opacity:1" fill="#f7f7f7" d="M 388.5,342.5 C 389.833,342.5 391.167,342.5 392.5,342.5C 392.5,348.833 392.5,355.167 392.5,361.5C 391.167,361.5 389.833,361.5 388.5,361.5C 388.5,355.167 388.5,348.833 388.5,342.5 Z"/></g>
<g><path style="opacity:1" fill="#7c7c7c" d="M 97.5,346.5 C 97.5,345.5 97.5,344.5 97.5,343.5C 94.1667,343.5 90.8333,343.5 87.5,343.5C 87.5,349.5 87.5,355.5 87.5,361.5C 86.5098,355.355 86.1765,349.022 86.5,342.5C 90.5,342.5 94.5,342.5 98.5,342.5C 98.7678,344.099 98.4345,345.432 97.5,346.5 Z"/></g>
<g><path style="opacity:1" fill="#f5f5f5" d="M 97.5,346.5 C 95.5,346.5 93.5,346.5 91.5,346.5C 91.5,347.833 91.5,349.167 91.5,350.5C 93.5,350.5 95.5,350.5 97.5,350.5C 97.5,351.833 97.5,353.167 97.5,354.5C 95.5,354.5 93.5,354.5 91.5,354.5C 91.5,356.833 91.5,359.167 91.5,361.5C 90.1667,361.5 88.8333,361.5 87.5,361.5C 87.5,355.5 87.5,349.5 87.5,343.5C 90.8333,343.5 94.1667,343.5 97.5,343.5C 97.5,344.5 97.5,345.5 97.5,346.5 Z"/></g>
<g><path style="opacity:1" fill="#d9d9d9" d="M 100.5,342.5 C 104.161,342.35 105.161,343.85 103.5,347C 99.7071,347.487 98.7071,345.987 100.5,342.5 Z"/></g>
<g><path style="opacity:1" fill="#d9d9d9" d="M 163.5,342.5 C 167.161,342.35 168.161,343.85 166.5,347C 162.707,347.487 161.707,345.987 163.5,342.5 Z"/></g>
<g><path style="opacity:1" fill="#e2e2e2" d="M 197.5,342.5 C 201.167,342.5 204.833,342.5 208.5,342.5C 208.5,343.833 208.5,345.167 208.5,346.5C 206.5,346.5 204.5,346.5 202.5,346.5C 202.5,347.833 202.5,349.167 202.5,350.5C 204.5,350.5 206.5,350.5 208.5,350.5C 208.5,351.833 208.5,353.167 208.5,354.5C 206.5,354.5 204.5,354.5 202.5,354.5C 202.5,356.833 202.5,359.167 202.5,361.5C 200.833,361.5 199.167,361.5 197.5,361.5C 197.5,355.167 197.5,348.833 197.5,342.5 Z"/></g>
<g><path style="opacity:1" fill="#fafafa" d="M 307.5,343.5 C 308.833,343.5 310.167,343.5 311.5,343.5C 311.5,349.5 311.5,355.5 311.5,361.5C 310.167,361.5 308.833,361.5 307.5,361.5C 307.5,355.5 307.5,349.5 307.5,343.5 Z"/></g>
<g><path style="opacity:1" fill="#6a6a6a" d="M 307.5,343.5 C 308.919,342.549 310.585,342.216 312.5,342.5C 312.823,349.022 312.49,355.355 311.5,361.5C 311.5,355.5 311.5,349.5 311.5,343.5C 310.167,343.5 308.833,343.5 307.5,343.5 Z"/></g>
<g><path style="opacity:1" fill="#e4e4e4" d="M 341.5,359.5 C 342.01,356.612 341.344,354.279 339.5,352.5C 339.993,350.194 340.326,347.861 340.5,345.5C 342.167,345.5 343.833,345.5 345.5,345.5C 345.579,347.666 346.246,349.666 347.5,351.5C 346.72,352.949 346.054,354.449 345.5,356C 346.378,357.8 347.045,359.633 347.5,361.5C 344.99,361.946 342.99,361.28 341.5,359.5 Z"/></g>
<g><path style="opacity:1" fill="#efefef" d="M 380.5,345.5 C 381.833,345.5 383.167,345.5 384.5,345.5C 384.449,347.57 385.115,349.403 386.5,351C 385.544,352.365 384.878,353.865 384.5,355.5C 385.204,357.535 385.871,359.535 386.5,361.5C 384.533,361.739 382.699,361.406 381,360.5C 380.739,357.337 379.906,354.337 378.5,351.5C 379.754,349.666 380.421,347.666 380.5,345.5 Z"/></g>
<g><path style="opacity:1" fill="#797979" d="M 103.5,361.5 C 103.5,357.833 103.5,354.167 103.5,350.5C 102.5,350.5 101.5,350.5 100.5,350.5C 100.5,354.167 100.5,357.833 100.5,361.5C 99.5166,357.702 99.1832,353.702 99.5,349.5C 101.167,349.5 102.833,349.5 104.5,349.5C 104.817,353.702 104.483,357.702 103.5,361.5 Z"/></g>
<g><path style="opacity:1" fill="#fefffe" d="M 103.5,361.5 C 102.5,361.5 101.5,361.5 100.5,361.5C 100.5,357.833 100.5,354.167 100.5,350.5C 101.5,350.5 102.5,350.5 103.5,350.5C 103.5,354.167 103.5,357.833 103.5,361.5 Z"/></g>
<g><path style="opacity:1" fill="#e9e9e9" d="M 106.5,349.5 C 110.541,349.657 114.541,350.157 118.5,351C 119.456,354.394 119.789,357.894 119.5,361.5C 118.167,361.5 116.833,361.5 115.5,361.5C 115.664,358.813 115.497,356.146 115,353.5C 113.413,352.273 112.079,352.606 111,354.5C 110.503,356.81 110.337,359.143 110.5,361.5C 109.167,361.5 107.833,361.5 106.5,361.5C 106.5,357.5 106.5,353.5 106.5,349.5 Z"/></g>
<g><path style="opacity:1" fill="#eaeaea" d="M 123.5,349.5 C 127.206,350.539 130.873,350.539 134.5,349.5C 134.5,353.5 134.5,357.5 134.5,361.5C 130.974,361.061 127.307,360.894 123.5,361C 119.673,357.248 119.673,353.415 123.5,349.5 Z"/></g>
<g><path style="opacity:1" fill="#797979" d="M 141.5,350.5 C 140.167,350.5 138.833,350.5 137.5,350.5C 137.5,354.167 137.5,357.833 137.5,361.5C 136.517,357.702 136.183,353.702 136.5,349.5C 138.415,349.216 140.081,349.549 141.5,350.5 Z"/></g>
<g><path style="opacity:1" fill="#f1f1f1" d="M 137.5,361.5 C 137.5,357.833 137.5,354.167 137.5,350.5C 138.833,350.5 140.167,350.5 141.5,350.5C 144.258,348.952 146.758,349.285 149,351.5C 149.498,354.817 149.665,358.15 149.5,361.5C 148.167,361.5 146.833,361.5 145.5,361.5C 145.664,358.813 145.497,356.146 145,353.5C 144,352.167 143,352.167 142,353.5C 141.503,356.146 141.336,358.813 141.5,361.5C 140.167,361.5 138.833,361.5 137.5,361.5 Z"/></g>
<g><path style="opacity:1" fill="#e7e7e7" d="M 154.5,349.5 C 157.073,349.148 159.406,349.648 161.5,351C 160.045,353.016 158.045,353.849 155.5,353.5C 155.343,354.873 155.51,356.207 156,357.5C 158.176,357.988 160.009,358.988 161.5,360.5C 153.54,363.369 150.374,360.703 152,352.5C 153.045,351.627 153.878,350.627 154.5,349.5 Z"/></g>
<g><path style="opacity:1" fill="#797979" d="M 166.5,361.5 C 166.5,357.833 166.5,354.167 166.5,350.5C 165.5,350.5 164.5,350.5 163.5,350.5C 163.5,354.167 163.5,357.833 163.5,361.5C 162.517,357.702 162.183,353.702 162.5,349.5C 164.167,349.5 165.833,349.5 167.5,349.5C 167.817,353.702 167.483,357.702 166.5,361.5 Z"/></g>
<g><path style="opacity:1" fill="#fefffe" d="M 166.5,361.5 C 165.5,361.5 164.5,361.5 163.5,361.5C 163.5,357.833 163.5,354.167 163.5,350.5C 164.5,350.5 165.5,350.5 166.5,350.5C 166.5,354.167 166.5,357.833 166.5,361.5 Z"/></g>
<g><path style="opacity:1" fill="#eaeaea" d="M 171.5,349.5 C 175.206,350.539 178.873,350.539 182.5,349.5C 182.5,353.5 182.5,357.5 182.5,361.5C 178.974,361.061 175.307,360.894 171.5,361C 167.673,357.248 167.673,353.415 171.5,349.5 Z"/></g>
<g><path style="opacity:1" fill="#ededed" d="M 210.5,349.5 C 213.876,350.42 217.209,350.753 220.5,350.5C 219.324,352.677 217.49,354.011 215,354.5C 214.503,356.81 214.337,359.143 214.5,361.5C 213.167,361.5 211.833,361.5 210.5,361.5C 210.5,357.5 210.5,353.5 210.5,349.5 Z"/></g>
<g><path style="opacity:1" fill="#eaeaea" d="M 224.5,349.5 C 230.188,348.531 233.188,350.864 233.5,356.5C 230.813,356.336 228.146,356.503 225.5,357C 226.108,357.87 226.941,358.37 228,358.5C 230.028,357.032 231.862,357.199 233.5,359C 230.622,361.45 227.288,362.116 223.5,361C 220.681,356.899 221.014,353.065 224.5,349.5 Z"/></g>
<g><path style="opacity:1" fill="#ebebeb" d="M 238.5,349.5 C 244.183,348.646 246.849,350.98 246.5,356.5C 243.813,356.336 241.146,356.503 238.5,357C 241.191,357.95 243.857,358.616 246.5,359C 243.968,361.415 240.968,362.081 237.5,361C 233.446,356.773 233.78,352.939 238.5,349.5 Z"/></g>
<g><path style="opacity:1" fill="#ebebeb" d="M 267.5,349.5 C 274.371,348.821 277.538,351.821 277,358.5C 272.667,362.5 268.333,362.5 264,358.5C 262.665,354.392 263.832,351.392 267.5,349.5 Z"/></g>
<g><path style="opacity:1" fill="#e5e5e5" d="M 279.5,349.5 C 282.137,350.151 284.637,350.151 287,349.5C 288.711,349.439 290.044,350.106 291,351.5C 294.012,348.75 296.679,349.083 299,352.5C 299.498,355.482 299.665,358.482 299.5,361.5C 297.833,361.5 296.167,361.5 294.5,361.5C 294.5,358.833 294.5,356.167 294.5,353.5C 293.5,353.5 292.5,353.5 291.5,353.5C 291.5,356.167 291.5,358.833 291.5,361.5C 290.167,361.5 288.833,361.5 287.5,361.5C 287.5,358.833 287.5,356.167 287.5,353.5C 286.167,353.5 284.833,353.5 283.5,353.5C 283.5,356.167 283.5,358.833 283.5,361.5C 282.167,361.5 280.833,361.5 279.5,361.5C 279.5,357.5 279.5,353.5 279.5,349.5 Z"/></g>
<g><path style="opacity:1" fill="#efefef" d="M 314.5,349.5 C 317.731,350.181 321.064,350.348 324.5,350C 325,350.5 325.5,351 326,351.5C 326.498,354.817 326.665,358.15 326.5,361.5C 325.167,361.5 323.833,361.5 322.5,361.5C 322.664,358.813 322.497,356.146 322,353.5C 321,352.167 320,352.167 319,353.5C 318.503,356.146 318.336,358.813 318.5,361.5C 317.167,361.5 315.833,361.5 314.5,361.5C 314.5,357.5 314.5,353.5 314.5,349.5 Z"/></g>
<g><path style="opacity:1" fill="#ededed" d="M 331.5,349.5 C 333.5,349.5 335.5,349.5 337.5,349.5C 337.5,350.5 337.5,351.5 337.5,352.5C 332.494,352.566 332.494,353.566 337.5,355.5C 338.848,357.611 338.515,359.445 336.5,361C 334.167,361.667 331.833,361.667 329.5,361C 328.167,360.333 328.167,359.667 329.5,359C 331.167,358.667 332.833,358.333 334.5,358C 329.265,356.54 328.265,353.706 331.5,349.5 Z"/></g>
<g><path style="opacity:1" fill="#efefef" d="M 358.5,350.5 C 359.5,350.5 360.5,350.5 361.5,350.5C 361.5,354.167 361.5,357.833 361.5,361.5C 358.15,361.665 354.817,361.498 351.5,361C 347.513,357.38 347.513,353.713 351.5,350C 353.885,349.444 356.218,349.61 358.5,350.5 Z"/></g>
<g><path style="opacity:1" fill="#8f8f8f" d="M 358.5,350.5 C 359.568,349.566 360.901,349.232 362.5,349.5C 362.817,353.702 362.483,357.702 361.5,361.5C 361.5,357.833 361.5,354.167 361.5,350.5C 360.5,350.5 359.5,350.5 358.5,350.5 Z"/></g>
<g><path style="opacity:1" fill="#e6e6e6" d="M 364.5,349.5 C 367.731,350.181 371.064,350.348 374.5,350C 375.333,350.833 376.167,351.667 377,352.5C 377.498,355.482 377.665,358.482 377.5,361.5C 375.833,361.5 374.167,361.5 372.5,361.5C 372.5,358.5 372.5,355.5 372.5,352.5C 371.178,352.33 370.011,352.663 369,353.5C 368.503,356.146 368.336,358.813 368.5,361.5C 367.167,361.5 365.833,361.5 364.5,361.5C 364.5,357.5 364.5,353.5 364.5,349.5 Z"/></g>
<g><path style="opacity:1" fill="#e6e6e6" d="M 393.5,349.5 C 397.825,349.102 400.325,351.102 401,355.5C 401.833,353.833 402.667,352.167 403.5,350.5C 405.167,349.167 406.833,349.167 408.5,350.5C 405.373,355.92 402.373,361.42 399.5,367C 397.833,367.667 396.167,367.667 394.5,367C 395.961,364.579 397.294,362.079 398.5,359.5C 396.775,356.133 395.108,352.8 393.5,349.5 Z"/></g>
<g><path style="opacity:1" fill="#191919" d="M 125.5,353.5 C 129.138,352.737 130.638,354.07 130,357.5C 126.331,359.009 124.831,357.676 125.5,353.5 Z"/></g>
<g><path style="opacity:1" fill="#191919" d="M 173.5,353.5 C 177.138,352.737 178.638,354.07 178,357.5C 174.331,359.009 172.831,357.676 173.5,353.5 Z"/></g>
<g><path style="opacity:1" fill="#5a5a5a" d="M 225.5,352.5 C 226.978,352.238 228.311,352.571 229.5,353.5C 228.833,353.833 228.167,354.167 227.5,354.5C 226.287,354.253 225.62,353.586 225.5,352.5 Z"/></g>
<g><path style="opacity:1" fill="#535353" d="M 239.5,352.5 C 240.675,352.281 241.675,352.614 242.5,353.5C 240.948,354.798 239.948,354.465 239.5,352.5 Z"/></g>
<g><path style="opacity:1" fill="#161616" d="M 253.5,353.5 C 254.833,353.5 256.167,353.5 257.5,353.5C 257.99,355.948 257.157,357.615 255,358.5C 252.389,357.5 251.889,355.833 253.5,353.5 Z"/></g>
<g><path style="opacity:1" fill="#1c1c1c" d="M 268.5,353.5 C 269.833,353.5 271.167,353.5 272.5,353.5C 272.99,355.948 272.157,357.615 270,358.5C 267.389,357.5 266.889,355.833 268.5,353.5 Z"/></g>
<g><path style="opacity:1" fill="#878787" d="M 339.5,352.5 C 341.344,354.279 342.01,356.612 341.5,359.5C 340.732,357.285 340.065,354.952 339.5,352.5 Z"/></g>
<g><path style="opacity:1" fill="#1c1c1c" d="M 353.5,353.5 C 354.833,353.5 356.167,353.5 357.5,353.5C 357.99,355.948 357.157,357.615 355,358.5C 352.389,357.5 351.889,355.833 353.5,353.5 Z"/></g>
</svg>
